<?xml version="1.0" standalone="no"?>
<!DOCTYPE svg PUBLIC "-//W3C//DTD SVG 20010904//EN"
 "http://www.w3.org/TR/2001/REC-SVG-20010904/DTD/svg10.dtd">
<svg version="1.0" xmlns="http://www.w3.org/2000/svg"
 width="274.000000pt" height="274.000000pt" viewBox="0 0 274.000000 274.000000"
 preserveAspectRatio="xMidYMid meet">
<metadata>
Created by potrace 1.15, written by Peter Selinger 2001-2017
</metadata>
<g transform="translate(0.000000,274.000000) scale(0.100000,-0.100000)"
fill="#000000" stroke="none">
<path d="M830 1645 c0 -8 9 -15 20 -15 19 0 20 -7 20 -155 0 -148 -1 -155 -20
-155 -11 0 -20 -7 -20 -15 0 -12 14 -15 65 -15 51 0 65 3 65 15 0 8 -7 15 -15
15 -11 0 -15 12 -15 50 0 28 4 50 8 50 5 0 30 -29 57 -65 43 -57 54 -65 82
-65 22 0 33 5 33 14 0 8 -4 16 -9 18 -5 2 -29 28 -54 59 l-45 55 44 48 c24 27
44 52 44 57 0 5 -20 9 -45 9 -32 0 -45 -4 -45 -14 0 -8 5 -16 12 -18 15 -5
-50 -88 -69 -88 -10 0 -13 26 -13 115 l0 115 -50 0 c-38 0 -50 -4 -50 -15z"/>
<path d="M150 1605 c0 -24 5 -35 15 -35 8 0 15 7 15 15 0 11 12 15 50 15 l50
0 0 -140 c0 -133 -1 -140 -20 -140 -11 0 -20 -7 -20 -15 0 -12 14 -15 70 -15
56 0 70 3 70 15 0 8 -9 15 -20 15 -19 0 -20 7 -20 140 l0 140 50 0 c38 0 50
-4 50 -15 0 -8 7 -15 15 -15 10 0 15 11 15 35 l0 35 -160 0 -160 0 0 -35z"/>
<path d="M1345 1631 c-74 -19 -132 -69 -156 -134 -6 -18 -21 -38 -33 -43 -22
-10 -32 -49 -22 -90 5 -20 13 -24 48 -24 l41 0 -5 69 c-5 73 0 90 41 134 38
42 73 57 131 57 64 0 121 -28 154 -76 22 -33 24 -43 19 -111 l-6 -74 44 3 44
3 0 50 c0 42 -4 52 -22 60 -12 5 -24 21 -27 36 -7 36 -60 96 -105 118 -44 23
-106 32 -146 22z"/>
<path d="M1728 1593 c-10 -2 -18 -13 -18 -24 0 -10 -7 -19 -15 -19 -8 0 -15
-7 -15 -15 0 -8 7 -15 15 -15 12 0 15 -17 15 -93 0 -66 4 -99 15 -114 17 -24
64 -38 95 -28 29 9 25 33 -7 37 l-28 3 -3 98 -3 97 26 0 c16 0 25 6 25 15 0 9
-9 15 -25 15 -20 0 -25 5 -25 25 0 25 -11 29 -52 18z"/>
<path d="M1322 1553 c-75 -37 -106 -146 -60 -212 36 -54 70 -73 125 -74 49 -1
123 32 123 54 0 13 -64 11 -78 -3 -15 -15 -62 5 -62 26 0 25 39 40 64 26 12
-6 40 -10 62 -8 l39 3 3 50 c2 40 -2 58 -20 85 -43 64 -127 87 -196 53z"/>
<path d="M470 1535 c0 -8 7 -15 15 -15 12 0 15 -18 15 -100 0 -82 -3 -100 -15
-100 -8 0 -15 -7 -15 -15 0 -12 14 -15 70 -15 56 0 70 3 70 15 0 8 -9 15 -20
15 -19 0 -20 7 -20 115 l0 115 -50 0 c-38 0 -50 -4 -50 -15z"/>
<path d="M658 1534 c-91 -49 -72 -209 27 -242 54 -18 135 -7 135 18 0 15 -8
17 -56 16 -47 -1 -59 3 -75 23 -27 33 -26 110 2 145 25 32 73 36 89 6 6 -11
17 -20 25 -20 21 0 20 56 -1 64 -29 11 -119 5 -146 -10z"/>
<path d="M1850 1535 c0 -8 9 -15 20 -15 19 0 20 -7 20 -100 0 -93 -1 -100 -20
-100 -11 0 -20 -7 -20 -15 0 -12 14 -15 70 -15 56 0 70 3 70 15 0 8 -9 15 -20
15 -19 0 -20 7 -20 115 l0 115 -50 0 c-38 0 -50 -4 -50 -15z"/>
<path d="M2010 1535 c0 -8 7 -15 15 -15 12 0 15 -18 15 -100 0 -82 -3 -100
-15 -100 -8 0 -15 -7 -15 -15 0 -12 14 -15 65 -15 51 0 65 3 65 15 0 8 -7 15
-15 15 -12 0 -15 15 -15 74 0 69 2 76 26 95 32 25 38 26 58 5 23 -22 23 -174
1 -174 -8 0 -15 -7 -15 -15 0 -12 14 -15 65 -15 51 0 65 3 65 15 0 8 -9 15
-20 15 -19 0 -20 7 -20 98 0 83 -3 102 -18 115 -26 23 -84 21 -116 -4 l-26
-20 0 20 c0 18 -6 21 -50 21 -38 0 -50 -4 -50 -15z"/>
<path d="M2354 1538 c-48 -22 -57 -95 -18 -135 25 -25 25 -25 5 -40 -22 -15
-28 -47 -11 -58 5 -3 -2 -17 -18 -30 -22 -19 -25 -27 -16 -42 37 -60 210 -56
243 5 31 58 1 90 -89 94 -81 4 -89 25 -15 43 65 17 89 46 82 103 -4 36 -2 42
11 37 14 -5 31 9 32 26 0 11 -183 8 -206 -3z"/>
<path d="M960 1233 c-32 -12 -50 -37 -50 -69 0 -27 9 -41 55 -81 30 -26 55
-56 55 -65 0 -22 -38 -32 -89 -25 -35 4 -37 3 -33 -19 3 -19 13 -24 47 -30 59
-8 101 3 125 33 32 41 25 62 -42 124 -55 51 -60 59 -48 74 10 12 26 16 57 13
38 -3 43 -1 43 18 0 14 -8 24 -22 28 -28 7 -77 7 -98 -1z"/>
<path d="M1613 1203 c-14 -3 -23 -12 -23 -23 0 -10 -9 -20 -20 -23 -23 -6 -27
-37 -5 -37 11 0 15 -18 17 -82 3 -79 4 -83 29 -92 35 -12 75 -1 82 23 4 16 0
19 -22 18 -25 -2 -26 -1 -29 66 l-3 67 31 0 c23 0 30 4 30 20 0 15 -7 20 -25
20 -20 0 -25 5 -25 25 0 14 -3 24 -7 24 -5 -1 -18 -4 -30 -6z"/>
<path d="M1120 1154 c0 -4 17 -56 38 -115 35 -103 36 -110 21 -136 -12 -22
-22 -28 -47 -27 -25 2 -32 -2 -32 -17 0 -36 85 -37 115 -1 9 9 44 81 79 160
l64 142 -31 0 c-31 0 -33 -3 -62 -80 -27 -72 -45 -99 -45 -69 0 6 -9 42 -21
80 -20 65 -23 69 -50 69 -16 0 -29 -3 -29 -6z"/>
<path d="M1410 1147 c-42 -21 -38 -59 11 -100 55 -48 49 -72 -16 -65 -34 4
-45 2 -45 -8 0 -33 110 -43 145 -14 28 24 18 63 -26 101 -50 43 -46 63 12 57
31 -3 39 0 39 13 0 27 -77 38 -120 16z"/>
<path d="M1785 1147 c-57 -26 -75 -123 -32 -172 26 -30 104 -44 150 -26 47 18
34 36 -24 32 -55 -3 -89 16 -89 51 0 16 9 18 80 18 78 0 80 1 80 24 0 14 -10
37 -23 51 -27 33 -96 43 -142 22z"/>
<path d="M1990 1073 c0 -49 -3 -98 -6 -110 -6 -21 -3 -23 30 -23 l36 0 0 63
c0 72 19 110 53 105 20 -3 22 -10 25 -85 l3 -83 29 0 c30 0 30 0 30 58 0 64
16 105 44 110 32 7 40 -15 37 -93 l-2 -75 29 0 c28 0 29 2 36 61 10 105 8 126
-16 143 -29 20 -77 20 -106 0 -20 -14 -24 -14 -38 0 -20 20 -73 20 -102 0 -20
-14 -22 -14 -22 0 0 11 -10 16 -30 16 l-30 0 0 -87z"/>
</g>
</svg>
